<svg xmlns="http://www.w3.org/2000/svg" width="48" height="48" viewBox="0 0 48 48">
  <defs>
    <linearGradient id="grad" x1="0" y1="0" x2="0" y2="1">
      <stop offset="0%" stop-color="#c8ff50"/>
      <stop offset="50%" stop-color="#55cc00"/>
      <stop offset="100%" stop-color="#1e6600"/>
    </linearGradient>
    <linearGradient id="shine" x1="0" y1="0" x2="0" y2="1">
      <stop offset="0%" stop-color="rgba(220,255,130,0.9)"/>
      <stop offset="100%" stop-color="rgba(220,255,130,0)"/>
    </linearGradient>
  </defs>

  <!-- Círculo blanco de fondo -->
  <circle cx="24" cy="24" r="23" fill="white" stroke="#e0e0e0" stroke-width="0.5"/>

  <!-- Sombra del infinito -->
  <path d="M24,25 C21,18.5 16,13.5 10.5,14.5 C5,15.5 2.5,20 2.5,25 C2.5,30 5,34.5 10.5,35.5 C16,36.5 21,31.5 24,25 C27,18.5 32,13.5 37.5,14.5 C43,15.5 45.5,20 45.5,25 C45.5,30 43,34.5 37.5,35.5 C32,36.5 27,31.5 24,25"
    fill="none" stroke="#0a3a00" stroke-width="8.5" stroke-linecap="round" opacity="0.3"/>

  <!-- Cuerpo principal -->
  <path d="M24,24 C21,17.5 16,12.5 10.5,13.5 C5,14.5 2.5,19 2.5,24 C2.5,29 5,33.5 10.5,34.5 C16,35.5 21,30.5 24,24 C27,17.5 32,12.5 37.5,13.5 C43,14.5 45.5,19 45.5,24 C45.5,29 43,33.5 37.5,34.5 C32,35.5 27,30.5 24,24"
    fill="none" stroke="url(#grad)" stroke-width="7.5" stroke-linecap="round"/>

  <!-- Brillo superior -->
  <path d="M24,24 C21,17.5 16,12.5 10.5,13.5 C5,14.5 2.5,19 2.5,24 C27,17.5 32,12.5 37.5,13.5 C43,14.5 45.5,19 45.5,24"
    fill="none" stroke="url(#shine)" stroke-width="2.5" stroke-linecap="round"/>

</svg>